<svg width="24" height="24" viewBox="0 0 24 24" fill="none" xmlns="http://www.w3.org/2000/svg">
<path fill-rule="evenodd" clip-rule="evenodd" d="M22.58 12.7415C22.58 11.9969 22.5132 11.281 22.3891 10.5938H12.5V14.6553H18.1509C17.9075 15.9678 17.1677 17.0799 16.0557 17.8244V20.459H19.4491C21.4345 18.631 22.58 15.9392 22.58 12.7415Z" fill="#4285F4"/>
<path fill-rule="evenodd" clip-rule="evenodd" d="M12.4906 22.9972C15.3256 22.9972 17.7024 22.057 19.4397 20.4533L16.0463 17.8188C15.1061 18.4488 13.9033 18.8211 12.4906 18.8211C9.75583 18.8211 7.44106 16.974 6.61538 14.4922H3.10742V17.2126C4.83515 20.6442 8.38606 22.9972 12.4906 22.9972Z" fill="#34A853"/>
<path fill-rule="evenodd" clip-rule="evenodd" d="M6.62477 14.4917C6.41477 13.8617 6.29545 13.1887 6.29545 12.4967C6.29545 11.8047 6.41477 11.1317 6.62477 10.5017V7.78125H3.11682C2.40568 9.19875 2 10.8024 2 12.4967C2 14.191 2.40568 15.7947 3.11682 17.2122L6.62477 14.4917Z" fill="#FBBC05"/>
<path fill-rule="evenodd" clip-rule="evenodd" d="M12.4906 6.17614C14.0322 6.17614 15.4163 6.70591 16.5045 7.74636L19.5161 4.73477C17.6976 3.04045 15.3208 2 12.4906 2C8.38606 2 4.83515 4.35296 3.10742 7.78455L6.61538 10.505C7.44106 8.02318 9.75583 6.17614 12.4906 6.17614Z" fill="#EA4335"/>
</svg>
