<svg width="22" height="22" viewBox="0 0 22 22" fill="none" xmlns="http://www.w3.org/2000/svg">
<rect width="22" height="22" rx="3" fill="white"/>
<path fill-rule="evenodd" clip-rule="evenodd" d="M15.0054 4.99123C15.8934 4.48323 17.0001 5.12456 17.0001 6.14856V14.5179C17.0001 15.5412 15.8941 16.1832 15.0054 15.6752L12.3334 14.1486V6.5179L15.0054 4.99123ZM11.0001 6.9999H7.66677C6.84013 6.99907 6.04268 7.30542 5.42921 7.85948C4.81575 8.41354 4.43004 9.17578 4.34696 9.99823C4.26389 10.8207 4.48937 11.6447 4.97964 12.3102C5.46992 12.9758 6.19 13.4354 7.0001 13.5999V15.9999C7.0001 16.4419 7.1757 16.8658 7.48826 17.1784C7.80082 17.491 8.22474 17.6666 8.66677 17.6666C9.1088 17.6666 9.53272 17.491 9.84528 17.1784C10.1578 16.8658 10.3334 16.4419 10.3334 15.9999V13.6666H11.0001V6.9999Z" fill="black"/>
</svg>
