<svg width="22" height="22" viewBox="0 0 22 22" fill="none" xmlns="http://www.w3.org/2000/svg">
<rect width="22" height="22" rx="3" fill="white"/>
<path d="M11 5.00195C10.7376 5.00195 10.4778 5.05363 10.2354 5.15404C9.99299 5.25445 9.77273 5.40162 9.5872 5.58715C9.40167 5.77269 9.2545 5.99294 9.15409 6.23535C9.05368 6.47776 9.002 6.73757 9.002 6.99995C9.002 7.26233 9.05368 7.52215 9.15409 7.76455C9.2545 8.00696 9.40167 8.22722 9.5872 8.41275C9.77273 8.59828 9.99299 8.74546 10.2354 8.84586C10.4778 8.94627 10.7376 8.99795 11 8.99795C11.5299 8.99795 12.0381 8.78745 12.4128 8.41275C12.7875 8.03805 12.998 7.52986 12.998 6.99995C12.998 6.47005 12.7875 5.96185 12.4128 5.58715C12.0381 5.21246 11.5299 5.00195 11 5.00195ZM15.5 5.99995C15.1022 5.99995 14.7206 6.15799 14.4393 6.43929C14.158 6.7206 14 7.10213 14 7.49995C14 7.89778 14.158 8.27931 14.4393 8.56061C14.7206 8.84192 15.1022 8.99995 15.5 8.99995C15.8978 8.99995 16.2794 8.84192 16.5607 8.56061C16.842 8.27931 17 7.89778 17 7.49995C17 7.10213 16.842 6.7206 16.5607 6.43929C16.2794 6.15799 15.8978 5.99995 15.5 5.99995ZM6.5 5.99995C6.10218 5.99995 5.72064 6.15799 5.43934 6.43929C5.15804 6.7206 5 7.10213 5 7.49995C5 7.89778 5.15804 8.27931 5.43934 8.56061C5.72064 8.84192 6.10218 8.99995 6.5 8.99995C6.89783 8.99995 7.27936 8.84192 7.56066 8.56061C7.84197 8.27931 8 7.89778 8 7.49995C8 7.10213 7.84197 6.7206 7.56066 6.43929C7.27936 6.15799 6.89783 5.99995 6.5 5.99995ZM8 10.993C8.00185 10.729 8.10802 10.4764 8.29536 10.2904C8.48269 10.1043 8.73599 9.99995 9 9.99995H13C13.2652 9.99995 13.5196 10.1053 13.7071 10.2928C13.8946 10.4804 14 10.7347 14 11V14C14.0003 14.3147 13.951 14.6275 13.854 14.927C13.6326 15.6057 13.1764 16.1832 12.5675 16.5559C11.9586 16.9285 11.2368 17.0719 10.5316 16.9602C9.8265 16.8486 9.18428 16.4892 8.72028 15.9466C8.25628 15.4041 8.0009 14.7139 8 14V10.993ZM7 11C7 10.635 7.097 10.294 7.268 9.99995H5C4.73478 9.99995 4.48043 10.1053 4.29289 10.2928C4.10536 10.4804 4 10.7347 4 11V13.5C3.99986 13.9093 4.10023 14.3123 4.29227 14.6738C4.48432 15.0352 4.76218 15.344 5.10144 15.573C5.44071 15.802 5.831 15.9441 6.23806 15.987C6.64511 16.0299 7.05646 15.9722 7.436 15.819C7.14879 15.2553 6.99937 14.6316 7 13.999V11ZM15 11V14C15 14.655 14.843 15.273 14.564 15.819C14.9435 15.9722 15.3549 16.0299 15.7619 15.987C16.169 15.9441 16.5593 15.802 16.8986 15.573C17.2378 15.344 17.5157 15.0352 17.7077 14.6738C17.8998 14.3123 18.0001 13.9093 18 13.5V11C18 10.7347 17.8946 10.4804 17.7071 10.2928C17.5196 10.1053 17.2652 9.99995 17 9.99995H14.732C14.902 10.294 15 10.635 15 11Z" fill="black"/>
</svg>
