<svg width="22" height="22" viewBox="0 0 22 22" fill="none" xmlns="http://www.w3.org/2000/svg">
<rect width="22" height="22" rx="3" fill="white"/>
<path d="M5.6665 5.99967V15.9997C5.6665 16.4417 5.8421 16.8656 6.15466 17.1782C6.46722 17.4907 6.89114 17.6663 7.33317 17.6663H16.1665C16.2991 17.6663 16.4263 17.6137 16.5201 17.5199C16.6138 17.4261 16.6665 17.2989 16.6665 17.1663C16.6665 17.0337 16.6138 16.9066 16.5201 16.8128C16.4263 16.719 16.2991 16.6663 16.1665 16.6663H7.33317C7.15636 16.6663 6.98679 16.5961 6.86177 16.4711C6.73674 16.3461 6.6665 16.1765 6.6665 15.9997H16.1665C16.2991 15.9997 16.4263 15.947 16.5201 15.8532C16.6138 15.7595 16.6665 15.6323 16.6665 15.4997V5.99967C16.6665 5.7808 16.6234 5.56408 16.5396 5.36187C16.4559 5.15966 16.3331 4.97593 16.1783 4.82116C16.0236 4.6664 15.8399 4.54363 15.6376 4.45988C15.4354 4.37612 15.2187 4.33301 14.9998 4.33301H7.33317C6.89114 4.33301 6.46722 4.5086 6.15466 4.82116C5.8421 5.13372 5.6665 5.55765 5.6665 5.99967ZM10.3332 8.34501C10.33 8.47552 10.276 8.59964 10.1825 8.69083C10.0891 8.78202 9.96373 8.83305 9.83317 8.83301C9.33317 8.83301 9.33317 8.33234 9.33317 8.33234V8.32634C9.33295 8.29648 9.33473 8.26663 9.3385 8.23701C9.36732 7.97931 9.46393 7.73387 9.6185 7.52567C9.92117 7.11701 10.4652 6.81767 11.3418 6.83301C11.9752 6.84434 12.5372 7.10967 12.8892 7.54634C13.2472 7.99101 13.3678 8.59301 13.1305 9.18567C12.8892 9.78901 12.3432 10.029 12.0292 10.1663L11.9958 10.1817C11.8092 10.2637 11.7205 10.3063 11.6672 10.349L11.6665 10.3497V10.8323C11.6666 10.9649 11.614 11.0922 11.5203 11.186C11.4266 11.2798 11.2994 11.3326 11.1668 11.3327C11.0342 11.3328 10.907 11.2802 10.8132 11.1865C10.7194 11.0928 10.6666 10.9656 10.6665 10.833V10.333C10.6665 9.98434 10.8345 9.73501 11.0418 9.56834C11.2085 9.43501 11.4185 9.34301 11.5658 9.27767L11.5912 9.26634C11.9525 9.10701 12.1245 9.00834 12.2025 8.81367C12.2483 8.70901 12.2639 8.59364 12.2477 8.48057C12.2314 8.36749 12.1839 8.2612 12.1105 8.17367C11.9625 7.99034 11.6912 7.83901 11.3245 7.83301C10.7012 7.82234 10.4945 8.02301 10.4225 8.12101C10.3743 8.18541 10.3435 8.2612 10.3332 8.34101V8.34501ZM11.8332 12.6663C11.8332 12.8432 11.7629 13.0127 11.6379 13.1377C11.5129 13.2628 11.3433 13.333 11.1665 13.333C10.9897 13.333 10.8201 13.2628 10.6951 13.1377C10.5701 13.0127 10.4998 12.8432 10.4998 12.6663C10.4998 12.4895 10.5701 12.32 10.6951 12.1949C10.8201 12.0699 10.9897 11.9997 11.1665 11.9997C11.3433 11.9997 11.5129 12.0699 11.6379 12.1949C11.7629 12.32 11.8332 12.4895 11.8332 12.6663Z" fill="black"/>
</svg>
