<svg width="22" height="22" viewBox="0 0 22 22" fill="none" xmlns="http://www.w3.org/2000/svg">
<rect width="22" height="22" rx="3" fill="white"/>
<path d="M14 15.6663C14.4667 15.6663 14.8611 15.5052 15.1833 15.183C15.5056 14.8608 15.6667 14.4663 15.6667 13.9997C15.6667 13.533 15.5056 13.1386 15.1833 12.8163C14.8611 12.4941 14.4667 12.333 14 12.333C13.5333 12.333 13.1389 12.4941 12.8167 12.8163C12.4944 13.1386 12.3333 13.533 12.3333 13.9997C12.3333 14.4663 12.4944 14.8608 12.8167 15.183C13.1389 15.5052 13.5333 15.6663 14 15.6663ZM17.8667 17.8663C17.7444 17.9886 17.5889 18.0497 17.4 18.0497C17.2111 18.0497 17.0556 17.9886 16.9333 17.8663L15.6 16.533C15.3667 16.6886 15.114 16.8052 14.842 16.883C14.57 16.9608 14.2893 16.9997 14 16.9997C13.1667 16.9997 12.4584 16.7081 11.8753 16.125C11.2922 15.5419 11.0004 14.8335 11 13.9997C10.9996 13.1659 11.2913 12.4577 11.8753 11.875C12.4593 11.2923 13.1676 11.0006 14 10.9997C14.8324 10.9988 15.5409 11.2906 16.1253 11.875C16.7098 12.4595 17.0013 13.1677 17 13.9997C17 14.2886 16.9611 14.5692 16.8833 14.8417C16.8056 15.1141 16.6889 15.3668 16.5333 15.5997L17.8667 16.933C17.9889 17.0552 18.05 17.2108 18.05 17.3997C18.05 17.5886 17.9889 17.7441 17.8667 17.8663ZM6.33333 17.6663C5.96667 17.6663 5.65289 17.5359 5.392 17.275C5.13111 17.0141 5.00044 16.7001 5 16.333V5.66634C5 5.29967 5.13067 4.9859 5.392 4.72501C5.65333 4.46412 5.96711 4.33345 6.33333 4.33301H11.1167C11.2944 4.33301 11.464 4.36634 11.6253 4.43301C11.7867 4.49967 11.9282 4.59412 12.05 4.71634L15.2833 7.94967C15.4056 8.0719 15.5 8.21367 15.5667 8.37501C15.6333 8.53634 15.6667 8.70567 15.6667 8.88301V9.18301C15.6667 9.38301 15.586 9.54412 15.4247 9.66634C15.2633 9.78856 15.0829 9.8219 14.8833 9.76634C14.7389 9.73301 14.5944 9.7079 14.45 9.69101C14.3056 9.67412 14.1556 9.6659 14 9.66634C13.3778 9.66634 12.7971 9.78301 12.258 10.0163C11.7189 10.2497 11.2551 10.5775 10.8667 10.9997H8.33333C8.14444 10.9997 7.98622 11.0637 7.85867 11.1917C7.73111 11.3197 7.66711 11.4779 7.66667 11.6663C7.66622 11.8548 7.73022 12.0132 7.85867 12.1417C7.98711 12.2701 8.14533 12.3339 8.33333 12.333H10C9.91111 12.5441 9.84178 12.7608 9.792 12.983C9.74222 13.2052 9.706 13.433 9.68333 13.6663H8.33333C8.14444 13.6663 7.98622 13.7303 7.85867 13.8583C7.73111 13.9863 7.66711 14.1446 7.66667 14.333C7.66622 14.5215 7.73022 14.6799 7.85867 14.8083C7.98711 14.9368 8.14533 15.0006 8.33333 14.9997H9.78333C9.86111 15.3441 9.97778 15.6692 10.1333 15.975C10.2889 16.2808 10.4778 16.5612 10.7 16.8163C10.8556 16.983 10.8918 17.1663 10.8087 17.3663C10.7256 17.5663 10.5838 17.6663 10.3833 17.6663H6.33333ZM11 5.66634V8.33301C11 8.5219 11.064 8.68034 11.192 8.80834C11.32 8.93634 11.4782 9.00012 11.6667 8.99967H14.3333L11 5.66634Z" fill="black"/>
</svg>
